<svg id="wave" style="transform:rotate(180deg); transition: 0.3s" viewBox="0 0 1440 490" version="1.1" xmlns="http://www.w3.org/2000/svg"><defs><linearGradient id="sw-gradient-0" x1="0" x2="0" y1="1" y2="0"><stop stop-color="rgba(79.268, 162.724, 255, 1)" offset="0%"></stop><stop stop-color="rgba(11, 176.473, 255, 0.02)" offset="100%"></stop></linearGradient></defs><path style="transform:translate(0, 0px); opacity:1" fill="url(#sw-gradient-0)" d="M0,0L26.7,57.2C53.3,114,107,229,160,253.2C213.3,278,267,212,320,179.7C373.3,147,427,147,480,163.3C533.3,180,587,212,640,204.2C693.3,196,747,147,800,163.3C853.3,180,907,261,960,285.8C1013.3,310,1067,278,1120,253.2C1173.3,229,1227,212,1280,171.5C1333.3,131,1387,65,1440,40.8C1493.3,16,1547,33,1600,49C1653.3,65,1707,82,1760,122.5C1813.3,163,1867,229,1920,269.5C1973.3,310,2027,327,2080,343C2133.3,359,2187,376,2240,318.5C2293.3,261,2347,131,2400,81.7C2453.3,33,2507,65,2560,65.3C2613.3,65,2667,33,2720,32.7C2773.3,33,2827,65,2880,138.8C2933.3,212,2987,327,3040,383.8C3093.3,441,3147,441,3200,408.3C3253.3,376,3307,310,3360,269.5C3413.3,229,3467,212,3520,196C3573.3,180,3627,163,3680,196C3733.3,229,3787,310,3813,351.2L3840,392L3840,490L3813.3,490C3786.7,490,3733,490,3680,490C3626.7,490,3573,490,3520,490C3466.7,490,3413,490,3360,490C3306.7,490,3253,490,3200,490C3146.7,490,3093,490,3040,490C2986.7,490,2933,490,2880,490C2826.7,490,2773,490,2720,490C2666.7,490,2613,490,2560,490C2506.7,490,2453,490,2400,490C2346.7,490,2293,490,2240,490C2186.7,490,2133,490,2080,490C2026.7,490,1973,490,1920,490C1866.7,490,1813,490,1760,490C1706.7,490,1653,490,1600,490C1546.7,490,1493,490,1440,490C1386.7,490,1333,490,1280,490C1226.7,490,1173,490,1120,490C1066.7,490,1013,490,960,490C906.7,490,853,490,800,490C746.7,490,693,490,640,490C586.7,490,533,490,480,490C426.7,490,373,490,320,490C266.7,490,213,490,160,490C106.7,490,53,490,27,490L0,490Z"></path></svg>