<svg id="wave" style="transform:rotate(180deg); transition: 0.3s" viewBox="0 0 1440 490" version="1.1" xmlns="http://www.w3.org/2000/svg"><defs><linearGradient id="sw-gradient-0" x1="0" x2="0" y1="1" y2="0"><stop stop-color="rgba(180.387, 188.597, 255, 1)" offset="0%"></stop><stop stop-color="rgba(255, 255, 255, 1)" offset="100%"></stop></linearGradient></defs><path style="transform:translate(0, 0px); opacity:1" fill="url(#sw-gradient-0)" d="M0,245L48,269.5C96,294,192,343,288,302.2C384,261,480,131,576,89.8C672,49,768,98,864,138.8C960,180,1056,212,1152,187.8C1248,163,1344,82,1440,106.2C1536,131,1632,261,1728,294C1824,327,1920,261,2016,220.5C2112,180,2208,163,2304,155.2C2400,147,2496,147,2592,122.5C2688,98,2784,49,2880,32.7C2976,16,3072,33,3168,57.2C3264,82,3360,114,3456,114.3C3552,114,3648,82,3744,130.7C3840,180,3936,310,4032,351.2C4128,392,4224,343,4320,334.8C4416,327,4512,359,4608,383.8C4704,408,4800,425,4896,424.7C4992,425,5088,408,5184,383.8C5280,359,5376,327,5472,310.3C5568,294,5664,294,5760,294C5856,294,5952,294,6048,285.8C6144,278,6240,261,6336,236.8C6432,212,6528,180,6624,147C6720,114,6816,82,6864,65.3L6912,49L6912,490L6864,490C6816,490,6720,490,6624,490C6528,490,6432,490,6336,490C6240,490,6144,490,6048,490C5952,490,5856,490,5760,490C5664,490,5568,490,5472,490C5376,490,5280,490,5184,490C5088,490,4992,490,4896,490C4800,490,4704,490,4608,490C4512,490,4416,490,4320,490C4224,490,4128,490,4032,490C3936,490,3840,490,3744,490C3648,490,3552,490,3456,490C3360,490,3264,490,3168,490C3072,490,2976,490,2880,490C2784,490,2688,490,2592,490C2496,490,2400,490,2304,490C2208,490,2112,490,2016,490C1920,490,1824,490,1728,490C1632,490,1536,490,1440,490C1344,490,1248,490,1152,490C1056,490,960,490,864,490C768,490,672,490,576,490C480,490,384,490,288,490C192,490,96,490,48,490L0,490Z"></path></svg>